<svg xmlns="http://www.w3.org/2000/svg" width="19.261" height="19.256" viewBox="0 0 19.261 19.256">
  <path id="Icon_awesome-instagram" data-name="Icon awesome-instagram" d="M9.627,6.929a4.937,4.937,0,1,0,4.937,4.937A4.929,4.929,0,0,0,9.627,6.929Zm0,8.147a3.21,3.21,0,1,1,3.21-3.21A3.216,3.216,0,0,1,9.627,15.076Zm6.291-8.349a1.152,1.152,0,1,1-1.152-1.152A1.149,1.149,0,0,1,15.918,6.727ZM19.188,7.9a5.7,5.7,0,0,0-1.555-4.035A5.736,5.736,0,0,0,13.6,2.305c-1.59-.09-6.355-.09-7.945,0A5.728,5.728,0,0,0,1.618,3.857,5.717,5.717,0,0,0,.062,7.891c-.09,1.59-.09,6.355,0,7.945a5.7,5.7,0,0,0,1.555,4.035,5.744,5.744,0,0,0,4.035,1.555c1.59.09,6.355.09,7.945,0a5.7,5.7,0,0,0,4.035-1.555,5.736,5.736,0,0,0,1.555-4.035C19.278,14.246,19.278,9.485,19.188,7.9Zm-2.054,9.646a3.25,3.25,0,0,1-1.83,1.83c-1.268.5-4.275.387-5.676.387s-4.413.112-5.676-.387a3.25,3.25,0,0,1-1.83-1.83c-.5-1.268-.387-4.275-.387-5.676s-.112-4.413.387-5.676a3.25,3.25,0,0,1,1.83-1.83c1.268-.5,4.275-.387,5.676-.387s4.413-.112,5.676.387a3.25,3.25,0,0,1,1.83,1.83c.5,1.268.387,4.275.387,5.676S17.637,16.279,17.134,17.542Z" transform="translate(0.005 -2.238)" fill="#fff"/>
</svg>
