<svg xmlns="http://www.w3.org/2000/svg" width="18.852" height="18.852" viewBox="0 0 18.852 18.852">
  <path id="Icon_metro-linkedin" data-name="Icon metro-linkedin" d="M18.256,1.928H5.737A3.176,3.176,0,0,0,2.571,5.095V17.613A3.176,3.176,0,0,0,5.737,20.78H18.256a3.176,3.176,0,0,0,3.167-3.167V5.095a3.176,3.176,0,0,0-3.167-3.167ZM9.64,17.245H7.284V9H9.64v8.248ZM8.462,7.819A1.178,1.178,0,1,1,9.64,6.641,1.178,1.178,0,0,1,8.462,7.819Zm9.426,9.426H15.531V12.532a1.178,1.178,0,0,0-2.356,0v4.713H10.818V9h2.356v1.463C13.661,9.793,14.4,9,15.237,9a2.81,2.81,0,0,1,2.651,2.946Z" transform="translate(-2.571 -1.928)" fill="#fff"/>
</svg>
