<svg xmlns="http://www.w3.org/2000/svg" width="163.172" height="23.013" viewBox="0 0 163.172 23.013">
  <g id="Group_1157" data-name="Group 1157" transform="translate(-1208.597 -4232.493)">
    <g id="Group_65" data-name="Group 65" transform="translate(1258.641 4232.493)">
      <g id="Visa_Inc._logo" transform="translate(58.967 2.698)">
        <path id="polygon9" d="M437.894,127.695h-4.387l2.744-16.968h4.387Z" transform="translate(-414.425 -110.419)"/>
        <path id="path11" d="M578.34,105.77a10.812,10.812,0,0,0-3.935-.722c-4.333,0-7.384,2.31-7.4,5.614-.036,2.437,2.184,3.791,3.845,4.6,1.7.83,2.274,1.372,2.274,2.112-.017,1.137-1.372,1.661-2.635,1.661a8.732,8.732,0,0,1-4.117-.9l-.578-.271-.614,3.809a13.353,13.353,0,0,0,4.893.9c4.6,0,7.6-2.275,7.636-5.795.018-1.932-1.155-3.412-3.683-4.621-1.534-.776-2.474-1.3-2.474-2.094.018-.722.795-1.462,2.527-1.462a7.454,7.454,0,0,1,3.268.65l.4.18.6-3.664Z" transform="translate(-538.965 -105.048)"/>
        <path id="path13" d="M797.31,121.684c.361-.975,1.752-4.748,1.752-4.748-.018.036.361-.993.577-1.624l.307,1.462s.831,4.062,1.011,4.91Zm5.416-10.957h-3.394a2.165,2.165,0,0,0-2.293,1.408l-6.517,15.56h4.6l.921-2.545h5.633c.126.6.524,2.545.524,2.545h4.062l-3.54-16.968Z" transform="translate(-752.104 -110.419)"/>
        <path id="path15" d="M176.668,110.727l-4.3,11.571-.47-2.347a12.987,12.987,0,0,0-6.066-7.112l3.936,14.838h4.64l6.9-16.95Z" transform="translate(-161.25 -110.419)"/>
        <path id="path17" d="M88.3,110.727H81.238l-.072.343c5.506,1.408,9.153,4.8,10.651,8.882l-1.535-7.8a1.815,1.815,0,0,0-1.986-1.426Z" transform="translate(-81.166 -110.419)"/>
      </g>
      <g id="MasterCard_Logo">
        <g id="g10305" transform="translate(0 0)">
          <path id="path2268" d="M143.632,13.28a11.4,11.4,0,0,1-22.809.006V13.28a11.4,11.4,0,1,1,22.809-.006Z" transform="translate(-105.525 -1.872)" fill="#e3e3e3"/>
          <path id="path1350" d="M13.3,1.895a11.4,11.4,0,1,0,7.748,19.838h0a11.511,11.511,0,0,0,1.158-1.221H19.869a11.138,11.138,0,0,1-.85-1.175h4.03a11.422,11.422,0,0,0,.664-1.221H18.353a11.249,11.249,0,0,1-.477-1.2h6.313a11.455,11.455,0,0,0,.324-6.059H17.542a11.371,11.371,0,0,1,.325-1.2h6.315a11.405,11.405,0,0,0-.492-1.221H18.353a10.942,10.942,0,0,1,.654-1.2h4.027a11.429,11.429,0,0,0-.885-1.221H19.9a10.584,10.584,0,0,1,1.144-1.152,11.364,11.364,0,0,0-7.676-2.972Z" transform="translate(-1.967 -1.892)" fill="#989898"/>
          <path id="use9412" d="M286.645,136.82a.379.379,0,0,1,.181.048.337.337,0,0,1,.138.137.369.369,0,0,1,0,.368.343.343,0,0,1-.137.137.373.373,0,0,1-.367,0,.349.349,0,0,1-.137-.137.37.37,0,0,1,0-.368.343.343,0,0,1,.138-.137.383.383,0,0,1,.182-.048m0,.061a.315.315,0,0,0-.151.04.283.283,0,0,0-.115.114.306.306,0,0,0-.042.154.313.313,0,0,0,.041.153.3.3,0,0,0,.114.114.309.309,0,0,0,.306,0,.291.291,0,0,0,.114-.114.312.312,0,0,0,.04-.153.307.307,0,0,0-.041-.154.281.281,0,0,0-.115-.114.309.309,0,0,0-.151-.04m-.162.512V137h.137a.319.319,0,0,1,.1.011.1.1,0,0,1,.05.038.1.1,0,0,1,.019.058.1.1,0,0,1-.031.076.122.122,0,0,1-.082.036.115.115,0,0,1,.034.021.437.437,0,0,1,.059.078l.048.078h-.078l-.035-.062a.32.32,0,0,0-.067-.092.084.084,0,0,0-.051-.014h-.038v.169h-.064m.064-.224h.078a.125.125,0,0,0,.076-.017.054.054,0,0,0,.02-.044.052.052,0,0,0-.01-.031.06.06,0,0,0-.027-.021.2.2,0,0,0-.064-.007h-.073v.12" transform="translate(-249.682 -119.451)" fill="#fcb340"/>
        </g>
        <g id="g16480" transform="translate(0.727 8.462)">
          <g id="g13802" transform="translate(0 0.24)">
            <path id="path13804" d="M121.01,63.744l.152-1.032c-.083,0-.205.036-.313.036-.423,0-.475-.226-.442-.391l.417-2.076h.643l.132-1.172h-.606l.123-.71h-1.267c-.027.027-.717,3.993-.717,4.476A.9.9,0,0,0,120.1,63.9,3.188,3.188,0,0,0,121.01,63.744Z" transform="translate(-106.548 -57.767)"/>
            <path id="path13806" d="M136.706,65.667a1.906,1.906,0,0,0,2.1,2.124,3.651,3.651,0,0,0,1.358-.206l.214-1.171a4.4,4.4,0,0,1-1.364.306c-1.3,0-1.075-.972-1.075-.972l2.505.008a8.72,8.72,0,0,0,.16-1.107,1.664,1.664,0,0,0-1.769-1.783C137.61,62.865,136.706,64.181,136.706,65.667Zm2.13-1.715c.685,0,.559.77.559.833h-1.348C138.046,64.705,138.174,63.952,138.836,63.952Z" transform="translate(-121.86 -61.659)"/>
            <path id="path13808" d="M190.545,59.468l.217-1.324a2.924,2.924,0,0,1-1,.3,1.2,1.2,0,0,1-1.207-1.364c0-1.433.741-2.222,1.566-2.222a2.162,2.162,0,0,1,1.115.347l.2-1.286a2.415,2.415,0,0,0-1.217-.426c-1.9-.007-2.984,1.314-2.984,3.6,0,1.514.8,2.544,2.253,2.544A5.615,5.615,0,0,0,190.545,59.468Z" transform="translate(-165.88 -53.492)"/>
            <path id="path13810" d="M66.555,63.012a4.193,4.193,0,0,0-1.471.268l-.176,1.046a3.833,3.833,0,0,1,1.323-.214c.452,0,.783.051.783.418a.779.779,0,0,1-.04.306s-.357-.03-.522-.03c-1.185,0-2.153.448-2.153,1.8a1.152,1.152,0,0,0,1.172,1.309,1.5,1.5,0,0,0,1.216-.543l-.01.449h1.069l.477-3.344A1.436,1.436,0,0,0,66.555,63.012Zm.185,2.715c.023.2-.053,1.169-.784,1.169a.442.442,0,0,1-.475-.458c0-.333.181-.731,1.07-.731C66.758,65.707,66.7,65.722,66.74,65.727Z" transform="translate(-58.772 -61.787)"/>
            <path id="path13812" d="M94.391,67.94c.274,0,1.837.07,1.837-1.544,0-1.509-1.447-1.21-1.447-1.817,0-.3.236-.4.667-.4.171,0,.83.054.83.054l.153-1.072a5.665,5.665,0,0,0-1.12-.1c-.9,0-1.81.359-1.81,1.585,0,1.39,1.52,1.251,1.52,1.836,0,.391-.425.423-.752.423a3.968,3.968,0,0,1-1.078-.185l-.162,1.061A3.866,3.866,0,0,0,94.391,67.94Z" transform="translate(-83.804 -61.837)"/>
            <path id="path13814" d="M267.573,55.455l-.219,1.636a1.605,1.605,0,0,0-1.173-.631c-1.346,0-2.04,1.342-2.04,2.883,0,.995.495,1.97,1.506,1.97a1.518,1.518,0,0,0,1.131-.507l-.053.433h1.181l.928-5.774Zm-.522,3.179c0,.641-.318,1.5-.976,1.5-.437,0-.642-.367-.642-.943,0-.942.423-1.563.957-1.563C266.827,57.627,267.052,57.927,267.052,58.634Z" transform="translate(-232.892 -55.202)"/>
            <path id="path13816" d="M22.57,61.181l.739-4.359.109,4.359h.837l1.561-4.359-.691,4.359h1.243l.957-5.782-1.975-.015-1.175,3.54L24.143,55.4h-1.81l-.971,5.782H22.57Z" transform="translate(-21.362 -55.14)"/>
            <path id="path13818" d="M167.659,65.775c.353-2.01.479-3.6,1.51-3.268a7,7,0,0,1,.662-1.784s-.051-.076-.37-.076c-.544,0-1.27,1.1-1.27,1.1l.109-.682h-1.131l-.757,4.707h1.247Z" transform="translate(-147.742 -59.726)"/>
            <g id="use14699" transform="translate(24.952 1.225)">
              <path id="path13810_1_" d="M-627.826,63.012a4.194,4.194,0,0,0-1.471.268l-.176,1.046a3.835,3.835,0,0,1,1.323-.214c.452,0,.783.051.783.418a.781.781,0,0,1-.04.306s-.357-.03-.522-.03c-1.186,0-2.153.448-2.153,1.8a1.152,1.152,0,0,0,1.172,1.309,1.5,1.5,0,0,0,1.215-.543l-.01.449h1.069l.477-3.344A1.436,1.436,0,0,0-627.826,63.012Zm.185,2.715c.023.2-.053,1.169-.784,1.169a.442.442,0,0,1-.475-.458c0-.333.18-.731,1.07-.731C-627.623,65.707-627.676,65.722-627.641,65.727Z" transform="translate(630.083 -63.012)"/>
            </g>
            <path id="use14701" d="M246.822,68.626c.194-1.479.553-3.555,1.51-3.268.148-.778.005-.776-.313-.776a5.678,5.678,0,0,0-.665.02l.109-.682h-1.131l-.757,4.707h1.247Z" transform="translate(-216.716 -62.577)"/>
          </g>
          <g id="g10289" transform="translate(0.354 0)">
            <path id="path4157" d="M109.723,76.876l.152-1.032c-.083,0-.205.036-.313.036-.423,0-.469-.225-.442-.391l.341-2.106h.642l.155-1.142h-.606l.123-.71h-1.214c-.027.027-.717,3.993-.717,4.476a.9.9,0,0,0,.968,1.028A3.194,3.194,0,0,0,109.723,76.876Z" transform="translate(-95.299 -71.027)" fill="#fff"/>
            <path id="path4155" d="M125.423,78.8a1.906,1.906,0,0,0,2.1,2.124,3.09,3.09,0,0,0,1.283-.2l.214-1.171a3.781,3.781,0,0,1-1.289.3c-1.3,0-1.076-.972-1.076-.972h2.468a8.734,8.734,0,0,0,.159-1.107A1.628,1.628,0,0,0,127.548,76C126.327,76,125.423,77.312,125.423,78.8Zm2.129-1.715c.685,0,.559.77.559.832h-1.348C126.763,77.836,126.891,77.083,127.552,77.083Z" transform="translate(-110.614 -74.918)" fill="#fff"/>
            <path id="path4151" d="M179.723,73.466l.217-1.324a2.921,2.921,0,0,1-1,.3,1.2,1.2,0,0,1-1.207-1.364c0-1.433.741-2.222,1.566-2.222a2.162,2.162,0,0,1,1.115.347l.2-1.286a4.36,4.36,0,0,0-1.368-.3c-1.4,0-2.766,1.216-2.766,3.5,0,1.514.736,2.515,2.185,2.515A5.6,5.6,0,0,0,179.723,73.466Z" transform="translate(-155.095 -67.618)" fill="#fff"/>
            <path id="path4149" d="M55.271,76.143a4.194,4.194,0,0,0-1.471.268l-.176,1.046a3.833,3.833,0,0,1,1.323-.214c.452,0,.783.051.783.418a.776.776,0,0,1-.041.306s-.357-.03-.522-.03c-1.05,0-2.153.448-2.153,1.8a1.152,1.152,0,0,0,1.172,1.309,1.58,1.58,0,0,0,1.246-.558l-.04.464h1.069l.477-3.344A1.436,1.436,0,0,0,55.271,76.143Zm.26,2.723c.023.2-.128,1.162-.859,1.162a.442.442,0,0,1-.475-.458c0-.332.181-.731,1.07-.731A.772.772,0,0,1,55.531,78.866Z" transform="translate(-47.525 -75.046)" fill="#fff"/>
            <path id="path4145" d="M83.108,81.071c.274,0,1.837.07,1.837-1.544,0-1.508-1.447-1.21-1.447-1.816,0-.3.236-.4.667-.4.171,0,.83.054.83.054l.153-1.072a5.664,5.664,0,0,0-1.12-.1c-.9,0-1.81.359-1.81,1.585,0,1.39,1.52,1.251,1.52,1.836,0,.391-.425.423-.752.423a3.965,3.965,0,0,1-1.078-.185l-.162,1.061A3.854,3.854,0,0,0,83.108,81.071Z" transform="translate(-72.558 -75.096)" fill="#fff"/>
            <path id="path4139" d="M256.332,68.655l-.262,1.625a1.6,1.6,0,0,0-1.173-.631c-1.113,0-2.04,1.341-2.04,2.883,0,.995.495,1.97,1.506,1.97a1.518,1.518,0,0,0,1.131-.507l-.053.433h1.181l.928-5.774Zm-.564,3.169c0,.641-.318,1.5-.976,1.5-.437,0-.642-.367-.642-.943,0-.941.423-1.563.956-1.563C255.544,70.817,255.769,71.117,255.769,71.824Z" transform="translate(-221.647 -68.52)" fill="#fff"/>
            <path id="path4133" d="M11.541,74.414l.739-4.359.109,4.359h.837l1.561-4.359-.691,4.359h1.243l.957-5.782H14.373l-1.2,3.548-.062-3.548H11.341l-.971,5.782Z" transform="translate(-10.37 -68.501)" fill="#fff"/>
            <path id="path4131" d="M156.377,81.346c.353-2.01.419-3.642,1.262-3.343a4.672,4.672,0,0,1,.451-1.408,1.281,1.281,0,0,0-.234-.016c-.544,0-.947.743-.947.743l.108-.682h-1.131l-.757,4.707Z" transform="translate(-136.497 -75.426)" fill="#fff"/>
            <g id="use8523" transform="translate(25.173 1.097)">
              <path id="path4149_1_" d="M-638.806,76.143a4.2,4.2,0,0,0-1.471.268l-.176,1.046a3.834,3.834,0,0,1,1.323-.214c.452,0,.783.051.783.418a.781.781,0,0,1-.04.306s-.357-.03-.522-.03c-1.05,0-2.153.448-2.153,1.8a1.152,1.152,0,0,0,1.172,1.309,1.579,1.579,0,0,0,1.246-.558l-.04.464h1.069l.477-3.344A1.436,1.436,0,0,0-638.806,76.143Zm.26,2.723c.023.2-.128,1.162-.859,1.162a.442.442,0,0,1-.475-.458c0-.332.18-.731,1.07-.731A.777.777,0,0,1-638.546,78.866Z" transform="translate(641.063 -76.143)" fill="#fff"/>
            </g>
            <g id="use8525" transform="translate(28.827 1.153)">
              <path id="path4131_1_" d="M-206.7,81.346c.354-2.01.419-3.642,1.262-3.343a4.681,4.681,0,0,1,.452-1.408,1.281,1.281,0,0,0-.234-.016c-.544,0-.947.743-.947.743l.108-.682h-1.131l-.757,4.707Z" transform="translate(207.95 -76.579)" fill="#fff"/>
            </g>
            <path id="text9407" d="M286.605,107.975a.372.372,0,0,1,.181.048.334.334,0,0,1,.138.136.369.369,0,0,1,0,.368.342.342,0,0,1-.136.137.372.372,0,0,1-.367,0,.344.344,0,0,1-.136-.137.368.368,0,0,1,0-.368.338.338,0,0,1,.138-.136.377.377,0,0,1,.182-.048m0,.061a.312.312,0,0,0-.151.04.281.281,0,0,0-.115.114.308.308,0,0,0,0,.307.293.293,0,0,0,.115.114.31.31,0,0,0,.306,0,.292.292,0,0,0,.114-.114.308.308,0,0,0,0-.307.278.278,0,0,0-.115-.114.31.31,0,0,0-.151-.04m-.162.512v-.4h.137a.321.321,0,0,1,.1.011.1.1,0,0,1,.05.038.1.1,0,0,1,.019.058.105.105,0,0,1-.031.076.12.12,0,0,1-.082.036.122.122,0,0,1,.034.021.472.472,0,0,1,.059.079l.049.078H286.7l-.035-.062a.32.32,0,0,0-.067-.092.082.082,0,0,0-.051-.014h-.037v.169h-.065m.064-.223h.078a.124.124,0,0,0,.076-.017.054.054,0,0,0,.021-.044.052.052,0,0,0-.01-.031.059.059,0,0,0-.027-.021.2.2,0,0,0-.064-.007h-.073v.12" transform="translate(-250.728 -102.781)" fill="#fff"/>
          </g>
        </g>
      </g>
    </g>
    <g id="noun_secure_282889" transform="translate(1208.597 4232.493)">
      <path id="Path_81" data-name="Path 81" d="M74.017,30.867h-.1a20.109,20.109,0,0,1-7.984-2.786.293.293,0,0,0-.4,0,19.772,19.772,0,0,1-7.984,2.786h-.1a.309.309,0,0,0-.283.333v.1c.081.495,1.373,12.455,1.787,14.414.464,2.089,6,4.905,6.611,5.218l.182.081.182-.081c.646-.313,6.177-3.129,6.611-5.218.444-1.968,1.736-13.9,1.787-14.414v-.1C74.3,31.028,74.2,30.867,74.017,30.867Zm-8.66,11.789-2.685-2.645.929-.929,1.524,1.494,3.2-4.784,1.09.727Z" transform="translate(-57.157 -28)" fill="#919191"/>
    </g>
  </g>
</svg>
