<svg xmlns="http://www.w3.org/2000/svg" width="179.242" height="44.658" viewBox="0 0 179.242 44.658">
  <g id="Group_1115" data-name="Group 1115" transform="translate(-483.629 -2593.662)">
    <g id="Group_1111" data-name="Group 1111" transform="translate(483.629 2594.783)">
      <path id="Path_2244" data-name="Path 2244" d="M528.18,2603.587a15.287,15.287,0,0,0-.9-2.947l-.007-.017a11.144,11.144,0,0,0-1.73-2.842q-3.047-3.609-8.774-3.608h-.189a12.28,12.28,0,0,0-5.566,1.217l-.094.048c-.075.038-.149.079-.22.119-.116.063-.231.135-.342.2l-.015.011c-.187.114-.369.238-.553.369-.2.144-.4.3-.6.461s-.391.337-.586.52c-.07.068-.141.133-.209.2a17.851,17.851,0,0,0-2.3,2.852c-.026-.048-.055-.092-.081-.136l-.031-.048a2.027,2.027,0,0,0-.114-.191l-.013-.021c-.086-.138-.176-.276-.263-.409a10.889,10.889,0,0,0-9.549-5.2,11.848,11.848,0,0,0-8.963,3.608,12.91,12.91,0,0,0-3.454,9.306v24.3a6.278,6.278,0,0,0,.323,1.991c.022.077.048.147.077.221a6.316,6.316,0,0,0,5.917,4.106c.031,0,.061,0,.092,0h.033c.084,0,.169,0,.253-.011s.18-.01.27-.022a1.851,1.851,0,0,0,.231-.027c.075-.01.147-.02.22-.035.055-.007.112-.02.165-.031l.18-.039a5.933,5.933,0,0,0,.615-.176c.05-.018.1-.035.147-.054.083-.029.165-.062.244-.1a.821.821,0,0,0,.121-.051c.039-.018.079-.035.119-.055.092-.044.187-.09.277-.14s.184-.1.272-.155.178-.107.264-.164.171-.116.255-.177c.125-.092.248-.192.367-.294.04-.033.079-.069.116-.106.075-.065.147-.133.22-.208.055-.055.108-.11.16-.164s.1-.113.154-.172.1-.116.147-.176.1-.121.141-.182a4.956,4.956,0,0,0,.283-.411c.046-.074.094-.149.136-.226.094-.164.182-.332.261-.507.033-.066.061-.134.088-.2s.059-.147.088-.22c.033-.1.068-.187.1-.282.053-.167.1-.341.141-.514a6.3,6.3,0,0,0,.162-1.42v-21.315c0-.1,0-.188,0-.281.007-.246.022-.481.044-.7,0-.057.013-.115.02-.169s.013-.105.02-.157c.022-.149.05-.29.081-.422a3.429,3.429,0,0,1,.275-.771,1.517,1.517,0,0,1,1.172-.879,1.71,1.71,0,0,1,.215-.016h.037a1.357,1.357,0,0,1,1.339.684,3.18,3.18,0,0,1,.25.981c.018.132.033.273.046.427q.046.56.046,1.3v21.315a6.309,6.309,0,0,0,6.249,6.317h.006l0,0,0,0h.031l.022,0a6.318,6.318,0,0,0,6.319-6.319v-21.6a7.275,7.275,0,0,1,.077-1.08,3.952,3.952,0,0,1,.127-.607,1.674,1.674,0,0,1,1.614-1.419h.048a1.325,1.325,0,0,1,1.322.667,2.826,2.826,0,0,1,.213.784l0,.007c.04.251.066.541.086.874.011.2.018.408.022.637,0,.136.007.276.007.423v21.315a6.315,6.315,0,0,0,5.393,6.253l.007,0a.142.142,0,0,0,.042,0c.075.011.152.02.228.027.1.01.2.017.3.024l.035,0q.145.007.29.007l.048,0c.081,0,.165,0,.248,0s.169-.011.255-.017l.048,0h0c.075-.007.149-.015.224-.026a2.377,2.377,0,0,0,.252-.04l.013,0,.013,0a1.937,1.937,0,0,0,.206-.04l.051-.007c.026-.008.055-.014.081-.02l.1-.022.057-.016c.031-.008.064-.017.094-.028a.431.431,0,0,0,.077-.021l.018,0,.013,0c.092-.026.187-.057.281-.092l.143-.051c.083-.03.165-.063.246-.1l.053-.022c.053-.022.108-.048.163-.075s.121-.057.178-.085a6.3,6.3,0,0,0,3.48-5.634v-23.214A23.324,23.324,0,0,0,528.18,2603.587Z" transform="translate(-483.629 -2594.173)" fill="#fff"/>
      <path id="Path_2245" data-name="Path 2245" d="M490.231,2599.9h-.015l.011-.059Z" transform="translate(-475.753 -2587.392)" fill="#fff"/>
      <path id="Path_2246" data-name="Path 2246" d="M517.358,2608.177v.559a12.34,12.34,0,0,1-12,9.478c-.213,0-.426-.005-.635-.015v-8.123c0-.147,0-.287-.007-.423,0-.229-.011-.44-.022-.637-.02-.334-.046-.623-.086-.874l0-.007a2.83,2.83,0,0,0-.213-.784,1.326,1.326,0,0,0-1.322-.667h-.048a1.674,1.674,0,0,0-1.614,1.419,3.945,3.945,0,0,0-.127.607,7.291,7.291,0,0,0-.077,1.08v7.7a12.333,12.333,0,0,1-6.267-5.015,12.332,12.332,0,0,1-.329-12.634l.022-.04a2.026,2.026,0,0,1,.114.191l.031.048c.026.044.055.088.081.136a17.851,17.851,0,0,1,2.3-2.852c.068-.071.138-.136.209-.2q.293-.274.586-.52c.193-.163.393-.317.6-.461.184-.132.367-.255.553-.369l.015-.011c.112-.068.226-.141.343-.2.07-.04.145-.081.219-.119l.094-.048a12.28,12.28,0,0,1,5.566-1.217h.189q5.728,0,8.774,3.608a11.146,11.146,0,0,1,1.73,2.842l.007.017a15.279,15.279,0,0,1,.9,2.947A23.324,23.324,0,0,1,517.358,2608.177Z" transform="translate(-472.389 -2594.173)" fill="#fff"/>
      <path id="Path_2247" data-name="Path 2247" d="M507.475,2606.5a14.427,14.427,0,0,1-.821,4.811q-.211.6-.474,1.167a14.451,14.451,0,0,1-6.367,6.767v-9.169q0-.74-.046-1.3c-.013-.154-.029-.294-.046-.427a3.18,3.18,0,0,0-.25-.981,1.357,1.357,0,0,0-1.339-.684h-.037a1.71,1.71,0,0,0-.215.016,1.517,1.517,0,0,0-1.172.879,3.429,3.429,0,0,0-.275.771c-.031.132-.059.273-.081.422-.007.052-.015.1-.02.157s-.015.112-.02.169c-.022.217-.037.452-.044.7,0,.092,0,.184,0,.281v10.492a14.358,14.358,0,0,1-2.984.357c-.077,0-.156,0-.233,0a14.371,14.371,0,0,1-9.417-3.5v-10.342a12.91,12.91,0,0,1,3.454-9.306,11.848,11.848,0,0,1,8.963-3.608,10.889,10.889,0,0,1,9.549,5.2c.088.154.171.312.255.47A14.375,14.375,0,0,1,507.475,2606.5Z" transform="translate(-483.629 -2594.173)" fill="#fff"/>
    </g>
    <g id="Group_1112" data-name="Group 1112" transform="translate(533.659 2595.595)">
      <path id="Path_2248" data-name="Path 2248" d="M550.6,2610.349q-.161-.817-.386-1.612c-.061-.226-.13-.45-.2-.672a21.939,21.939,0,0,0-5.432-8.827,22.416,22.416,0,0,0-5.939-4.392,2.849,2.849,0,0,0-4.119,2.554v8.6a2.89,2.89,0,0,0,.736,1.908c.028.033.059.068.09.1l.022.022a9.507,9.507,0,0,1,2.4,4.253,10.736,10.736,0,0,1,.323,2.671,9.646,9.646,0,0,1-2.723,6.924,8.8,8.8,0,0,1-5.127,2.734,9.775,9.775,0,0,1-1.515.114,9.52,9.52,0,0,1-1.157-.068,8.837,8.837,0,0,1-5.454-2.795,9.6,9.6,0,0,1-2.756-6.908,10.651,10.651,0,0,1,.29-2.516,9.583,9.583,0,0,1,2.448-4.391l.007-.009a3.02,3.02,0,0,0,.569-.834,2.818,2.818,0,0,0,.257-1.173v-8.517a2.668,2.668,0,0,0-.039-.479,2.845,2.845,0,0,0-4.042-2.093,22.6,22.6,0,0,0-5.854,4.2,21.671,21.671,0,0,0-4.954,7.242,20.238,20.238,0,0,0-.812,2.354,21.154,21.154,0,0,0-.551,2.609,23.842,23.842,0,0,0-.266,3.6,22.314,22.314,0,1,0,44.628,0A23.485,23.485,0,0,0,550.6,2610.349Z" transform="translate(-506.414 -2594.542)" fill="#fff"/>
      <path id="Path_2249" data-name="Path 2249" d="M551.042,2608.5a22.314,22.314,0,0,1-44.628,0,23.844,23.844,0,0,1,.266-3.6,21.122,21.122,0,0,1,.551-2.608,20.246,20.246,0,0,1,.812-2.354l11.629.648,3,.169a3.023,3.023,0,0,1-.569.834l-.007.009a9.586,9.586,0,0,0-2.448,4.391,10.653,10.653,0,0,0-.29,2.516,9.6,9.6,0,0,0,2.756,6.908,8.837,8.837,0,0,0,5.454,2.8q.474.02.955.02c.575,0,1.15-.022,1.717-.066a8.8,8.8,0,0,0,5.127-2.734,9.645,9.645,0,0,0,2.723-6.924,10.736,10.736,0,0,0-.323-2.671,9.505,9.505,0,0,0-2.4-4.253l-.022-.022c-.031-.033-.061-.068-.09-.1l2.666.147,11.91.666.38.02q.224.793.386,1.612A23.487,23.487,0,0,1,551.042,2608.5Z" transform="translate(-506.414 -2588.094)" fill="#fff"/>
      <path id="Path_2250" data-name="Path 2250" d="M527.127,2624.6a22.192,22.192,0,0,1-20.341-15.917,20.226,20.226,0,0,1,.812-2.354,21.666,21.666,0,0,1,4.954-7.242,22.588,22.588,0,0,1,5.854-4.2,2.844,2.844,0,0,1,4.042,2.093v3.816a2.907,2.907,0,0,1-.826,2.01l-.007.006a9.593,9.593,0,0,0-2.389,4.168,10.93,10.93,0,0,0-.02,5.4,10.649,10.649,0,0,0-.29,2.516,9.6,9.6,0,0,0,2.756,6.908A8.836,8.836,0,0,0,527.127,2624.6Z" transform="translate(-505.969 -2594.483)" fill="#fff"/>
      <path id="Path_2251" data-name="Path 2251" d="M537.037,2608.065c-.057.219-.116.435-.18.653a22.211,22.211,0,0,1-19.59,15.893,8.8,8.8,0,0,0,5.127-2.734,9.646,9.646,0,0,0,2.723-6.924,11.229,11.229,0,0,1-.04-5.179,11.3,11.3,0,0,0-.129-1.721,9.5,9.5,0,0,0-2.591-5.2l-.024-.023a2.953,2.953,0,0,1-.786-1.547V2597.4a2.849,2.849,0,0,1,4.119-2.554,22.42,22.42,0,0,1,5.94,4.392A21.941,21.941,0,0,1,537.037,2608.065Z" transform="translate(-493.437 -2594.542)" fill="#fff"/>
    </g>
    <g id="Group_1113" data-name="Group 1113" transform="translate(583.161 2593.662)">
      <path id="Path_2252" data-name="Path 2252" d="M569.995,2628.173c.31-.461.6-.933.865-1.412q.174-.306.336-.617a21.963,21.963,0,0,0,2.4-10.081,22.43,22.43,0,0,0-1.094-7.307,2.851,2.851,0,0,0-4.721-1.1l-6.078,6.078a2.875,2.875,0,0,0-.828,1.869,1.36,1.36,0,0,0-.009.136v.03a9.513,9.513,0,0,1-1.311,4.706,10.774,10.774,0,0,1-1.66,2.115,9.655,9.655,0,0,1-6.822,2.971,8.8,8.8,0,0,1-5.557-1.693,10.013,10.013,0,0,1-1.153-.993,9.737,9.737,0,0,1-.771-.865,8.841,8.841,0,0,1-1.88-5.834,9.6,9.6,0,0,1,2.936-6.833,10.711,10.711,0,0,1,1.985-1.573,9.567,9.567,0,0,1,4.837-1.376h.009a3,3,0,0,0,.995-.188,2.833,2.833,0,0,0,1.01-.646l6.023-6.023a2.849,2.849,0,0,0-1.069-4.7,22.536,22.536,0,0,0-7.112-1.169,21.641,21.641,0,0,0-8.623,1.616,20.1,20.1,0,0,0-2.24,1.092,21.8,21.8,0,0,0-2.233,1.451,23.745,23.745,0,0,0-2.736,2.365,22.313,22.313,0,1,0,31.557,31.554A23.4,23.4,0,0,0,569.995,2628.173Z" transform="translate(-528.959 -2593.662)" fill="#fff"/>
      <path id="Path_2253" data-name="Path 2253" d="M567.053,2630.86a22.313,22.313,0,1,1-31.557-31.554,23.713,23.713,0,0,1,2.736-2.364,21.768,21.768,0,0,1,2.233-1.452,20.057,20.057,0,0,1,2.24-1.092l7.766,8.683,2,2.242a3,3,0,0,1-.995.188h-.009a9.565,9.565,0,0,0-4.837,1.376,10.689,10.689,0,0,0-1.985,1.573,9.6,9.6,0,0,0-2.936,6.833,8.84,8.84,0,0,0,1.88,5.834q.323.35.661.69c.409.408.83.8,1.263,1.167a8.8,8.8,0,0,0,5.557,1.693,9.654,9.654,0,0,0,6.822-2.971,10.761,10.761,0,0,0,1.66-2.116,9.511,9.511,0,0,0,1.311-4.706v-.03c0-.047,0-.092.009-.137l1.781,1.99,7.949,8.89.255.283c-.266.479-.555.951-.865,1.412A23.4,23.4,0,0,1,567.053,2630.86Z" transform="translate(-528.959 -2592.781)" fill="#fff"/>
      <path id="Path_2254" data-name="Path 2254" d="M538.8,2622.008a22.2,22.2,0,0,1-3.129-25.637,20.1,20.1,0,0,1,2.24-1.092,21.64,21.64,0,0,1,8.623-1.616,22.535,22.535,0,0,1,7.112,1.169,2.841,2.841,0,0,1,1.379,4.336l-2.7,2.7a2.916,2.916,0,0,1-2,.836h-.009a9.558,9.558,0,0,0-4.635,1.259,10.339,10.339,0,0,0-2.185,1.69,10.553,10.553,0,0,0-1.651,2.116,10.709,10.709,0,0,0-1.985,1.573,9.6,9.6,0,0,0-2.936,6.833A8.84,8.84,0,0,0,538.8,2622.008Z" transform="translate(-524.169 -2593.662)" fill="#fff"/>
      <path id="Path_2255" data-name="Path 2255" d="M562.179,2618.982c-.2.114-.391.226-.591.333A22.2,22.2,0,0,1,536.5,2616.7a8.8,8.8,0,0,0,5.557,1.693,9.655,9.655,0,0,0,6.822-2.971,11.239,11.239,0,0,1,3.634-3.69,11.174,11.174,0,0,0,1.126-1.309,9.512,9.512,0,0,0,1.846-5.513v-.031a2.941,2.941,0,0,1,.538-1.651l2.74-2.74a2.851,2.851,0,0,1,4.721,1.1,22.431,22.431,0,0,1,1.094,7.308A21.963,21.963,0,0,1,562.179,2618.982Z" transform="translate(-519.942 -2586.5)" fill="#fff"/>
    </g>
    <g id="Group_1114" data-name="Group 1114" transform="translate(632.154 2594.784)">
      <path id="Path_2256" data-name="Path 2256" d="M578.846,2599.217c-.211-.281-.437-.553-.67-.812a12.737,12.737,0,0,0-7.8-3.995c-.228-.037-.461-.07-.7-.1-.621-.073-1.265-.119-1.93-.135-.187,0-.38-.006-.573-.006a17.416,17.416,0,0,0-7.874,1.688,14.213,14.213,0,0,0-6.745,7.253,18.167,18.167,0,0,0-1.283,7.022v21.255a6.317,6.317,0,0,0,12.634,0v-20.818a9,9,0,0,1,.066-1.134,5.8,5.8,0,0,1,.2-.922,2.347,2.347,0,0,1,2.418-1.838,2.826,2.826,0,0,1,.4.027,2.276,2.276,0,0,1,1.836,1.2,5.563,5.563,0,0,1,.531,2.666v20.818a6.317,6.317,0,0,0,12.634,0v-20.818Q581.988,2603.367,578.846,2599.217Z" transform="translate(-551.272 -2594.173)" fill="#fff"/>
      <path id="Path_2257" data-name="Path 2257" d="M561.158,2594.237a21.694,21.694,0,0,0-2.762,10.632c0,.59.027,1.181.073,1.761a2.276,2.276,0,0,1,1.836,1.2,5.562,5.562,0,0,1,.531,2.666v4.407c.2.39.417.777.643,1.153a21.87,21.87,0,0,0,11.991,9.571V2610.5q0-7.206-3.142-11.356c-.211-.281-.437-.553-.67-.812a12.73,12.73,0,0,0-7.8-3.994Z" transform="translate(-542.754 -2594.097)" fill="#fff"/>
    </g>
  </g>
</svg>
